<?xml version="1.0" standalone="no"?>
<!DOCTYPE svg PUBLIC "-//W3C//DTD SVG 20010904//EN"
 "http://www.w3.org/TR/2001/REC-SVG-20010904/DTD/svg10.dtd">
<svg version="1.0" xmlns="http://www.w3.org/2000/svg"
 width="2083.000000pt" height="2083.000000pt" viewBox="0 0 2083.000000 2083.000000"
 preserveAspectRatio="xMidYMid meet">

<g transform="translate(0.000000,2083.000000) scale(0.100000,-0.100000)"
fill="#FFFFFF" stroke="none">
<path d="M14778 17879 c-59 -14 -671 -261 -988 -399 -237 -103 -455 -189 -522
-206 -66 -17 -211 -76 -468 -189 -96 -43 -223 -95 -282 -116 -183 -65 -607
-238 -727 -296 -137 -66 -208 -127 -256 -223 -46 -91 -432 -920 -550 -1180
-54 -118 -151 -322 -217 -453 -65 -131 -309 -649 -542 -1150 -1071 -2306
-1186 -2549 -1251 -2644 l-23 -34 -31 50 c-66 108 -337 642 -749 1476 -237
479 -447 897 -467 930 -20 33 -180 349 -355 701 -176 353 -327 644 -336 648
-40 15 -100 -4 -447 -146 -205 -83 -507 -204 -672 -270 -165 -65 -381 -150
-480 -189 -99 -40 -243 -100 -320 -134 -77 -34 -171 -72 -210 -85 -88 -28
-304 -138 -370 -188 -56 -42 -56 -43 -154 -267 -38 -88 -149 -329 -246 -535
-410 -870 -501 -1062 -633 -1351 -77 -167 -208 -450 -292 -629 -83 -179 -223
-478 -310 -665 -86 -187 -251 -538 -365 -780 -350 -742 -376 -797 -412 -885
-58 -139 -657 -1407 -1191 -2520 -99 -206 -192 -409 -207 -450 -39 -107 -38
-175 2 -266 36 -82 113 -331 168 -544 20 -80 90 -332 155 -560 65 -228 148
-525 185 -660 150 -555 188 -664 248 -701 42 -25 56 -25 237 11 386 76 1421
265 1774 325 213 36 401 72 416 80 15 8 44 34 65 57 35 42 193 343 235 447 11
28 128 284 261 569 311 666 445 961 476 1042 26 69 92 194 121 230 l18 22 17
-25 c29 -44 101 -224 255 -632 83 -220 195 -517 250 -661 55 -143 126 -334
157 -425 67 -191 78 -215 104 -224 11 -3 322 55 693 129 370 74 898 177 1173
230 275 52 712 136 970 185 259 49 612 115 785 146 173 31 522 96 775 145 540
105 723 139 980 180 247 40 303 53 375 90 119 60 185 144 313 397 41 81 271
567 511 1078 490 1043 550 1167 599 1244 l35 55 34 -55 c55 -86 113 -191 303
-549 357 -673 524 -981 618 -1134 20 -32 41 -81 47 -110 18 -87 150 -304 209
-343 29 -20 47 -23 130 -23 114 0 246 20 396 60 173 45 269 65 704 145 223 41
559 104 746 140 187 36 444 84 570 106 127 22 280 54 340 69 61 16 252 56 425
90 579 111 597 117 670 196 61 66 272 503 304 629 11 41 20 55 55 78 44 30 81
90 81 131 0 42 41 136 188 436 162 329 318 665 387 834 34 82 61 132 90 164
56 62 72 96 85 177 15 91 51 176 224 523 89 176 161 309 183 333 29 32 39 54
53 122 21 97 137 355 202 448 73 105 78 113 78 147 0 52 -48 133 -226 382
-175 245 -316 457 -400 599 -54 92 -115 167 -143 176 -10 3 -32 38 -51 83 -43
98 -124 218 -235 351 -48 58 -103 134 -121 170 -19 36 -62 104 -96 151 -97
135 -173 252 -188 290 -8 19 -42 64 -75 100 -68 72 -125 154 -236 339 -41 68
-100 153 -132 190 -97 110 -273 383 -308 479 -6 18 -24 39 -39 47 -33 17 -113
120 -270 350 -142 208 -216 310 -265 363 -20 22 -38 56 -44 81 -10 46 -33 77
-62 86 -12 4 -19 16 -19 30 0 38 -21 75 -52 91 -27 14 -78 82 -133 179 -15 28
-52 75 -80 106 -29 30 -123 161 -208 290 -85 129 -173 253 -196 277 -22 23
-41 51 -41 63 0 32 -18 59 -90 134 -107 112 -230 287 -244 348 -4 16 -26 47
-49 70 -63 62 -243 306 -407 552 -29 44 -85 118 -125 165 -40 47 -81 105 -92
130 -11 25 -49 82 -84 125 -95 117 -174 224 -273 368 -86 126 -175 240 -204
264 -28 23 -52 67 -52 96 0 18 -11 39 -29 58 -31 31 -61 35 -133 18z m-2849
-2352 c91 -135 234 -372 302 -498 37 -69 132 -227 211 -350 266 -413 676
-1074 753 -1215 43 -76 163 -276 267 -442 105 -167 205 -334 223 -370 19 -37
61 -103 94 -147 80 -106 248 -378 406 -655 171 -300 315 -537 386 -635 75
-105 168 -254 209 -335 18 -36 94 -159 170 -275 75 -115 167 -264 205 -330 37
-66 96 -168 131 -227 35 -59 84 -149 110 -200 60 -120 98 -174 134 -193 17 -9
30 -22 30 -31 0 -32 80 -170 245 -424 235 -362 307 -478 415 -670 129 -231
282 -488 319 -535 56 -72 116 -167 246 -385 70 -118 197 -321 282 -449 l154
-235 -24 -13 c-51 -26 -199 -62 -407 -98 -118 -20 -408 -77 -645 -127 -236
-49 -540 -111 -675 -139 -305 -62 -536 -114 -574 -128 -25 -10 -33 -8 -63 15
-55 42 -123 143 -217 320 -47 90 -138 253 -201 364 -63 110 -159 285 -214 388
-54 103 -139 259 -188 347 -131 232 -370 672 -523 960 -173 326 -215 400 -260
460 -21 28 -49 83 -64 124 -28 79 -73 162 -136 252 -25 35 -44 75 -49 105 -7
39 -18 56 -54 88 -38 34 -65 80 -166 281 -66 132 -150 292 -186 355 -159 274
-655 1175 -830 1505 -151 286 -212 398 -350 645 -51 91 -150 271 -220 400 -71
129 -161 292 -202 363 -40 70 -73 133 -73 140 0 7 88 201 196 432 108 231 289
623 404 870 282 612 361 775 372 769 4 -3 30 -38 57 -77z m-5220 -1735 c109
-186 178 -315 451 -852 142 -278 275 -536 297 -575 87 -152 898 -1739 1633
-3196 967 -1914 1365 -2686 1446 -2807 13 -18 35 -69 49 -113 16 -49 43 -102
70 -137 76 -102 265 -486 247 -503 -10 -11 -162 -55 -282 -83 -234 -55 -1440
-314 -1577 -339 -30 -6 -33 -3 -81 71 -118 182 -316 573 -622 1232 -275 591
-334 711 -364 747 -15 18 -40 67 -55 111 -44 122 -108 263 -303 677 -405 854
-690 1473 -1141 2475 -261 580 -546 1208 -632 1395 -87 187 -175 385 -197 440
-34 86 -293 671 -401 907 l-35 76 76 35 c43 19 159 69 260 111 101 42 308 131
460 197 353 154 613 260 624 253 4 -3 39 -58 77 -122z m-1776 -1552 c96 -223
206 -475 244 -560 80 -177 184 -419 371 -865 121 -289 197 -464 352 -810 34
-77 71 -162 80 -190 10 -27 75 -178 145 -335 70 -157 179 -409 242 -560 110
-264 213 -495 360 -815 39 -82 78 -175 87 -205 10 -30 49 -123 87 -207 75
-167 119 -272 119 -285 0 -14 71 -178 225 -518 142 -313 162 -361 206 -475 12
-33 93 -217 179 -410 86 -192 166 -379 178 -415 11 -37 52 -136 90 -220 63
-142 103 -241 131 -328 10 -32 9 -34 -22 -46 -18 -8 -45 -16 -62 -19 -199 -37
-858 -168 -1020 -203 -461 -100 -531 -114 -556 -114 -25 0 -70 39 -101 90 -9
14 -41 91 -73 170 -32 80 -98 243 -147 362 -49 120 -149 381 -223 580 -73 200
-233 617 -355 928 -122 311 -294 759 -381 995 -88 237 -187 495 -221 575 -109
260 -165 402 -218 555 -113 324 -196 445 -305 445 -40 0 -98 -63 -171 -185
-129 -216 -473 -928 -961 -1984 -323 -700 -370 -789 -443 -842 -14 -10 -110
-42 -215 -70 -287 -77 -1009 -258 -1013 -254 -9 9 223 498 1093 2305 139 289
336 698 438 910 102 212 274 567 382 790 442 908 569 1169 812 1675 278 579
473 959 485 947 4 -4 86 -190 181 -412z m5864 -430 c25 -47 67 -116 93 -155
63 -94 104 -168 329 -588 105 -198 205 -378 221 -402 16 -23 68 -116 116 -206
47 -90 111 -202 142 -249 31 -46 62 -106 68 -132 17 -63 23 -72 63 -100 19
-13 49 -50 68 -83 139 -240 356 -632 410 -739 36 -72 77 -141 92 -155 15 -15
39 -52 54 -84 14 -32 51 -96 82 -143 70 -107 95 -157 95 -187 0 -38 -31 -118
-135 -346 -53 -118 -128 -285 -165 -370 -88 -201 -360 -808 -439 -978 -34 -72
-74 -171 -90 -220 -32 -99 -152 -364 -196 -432 l-28 -45 -21 27 c-11 14 -48
75 -80 134 -106 193 -227 395 -321 538 -51 77 -148 239 -215 360 -67 121 -153
266 -191 323 -38 56 -85 135 -105 175 -20 39 -76 137 -124 217 -48 80 -122
210 -165 290 -43 80 -104 186 -136 236 -31 49 -114 198 -183 330 -152 287
-560 1097 -627 1243 l-47 103 40 97 c74 179 796 1760 965 2114 l66 137 159
-312 c88 -172 180 -351 205 -398z"/>
</g>
</svg>
