<?xml version="1.0" standalone="no"?>
<!DOCTYPE svg PUBLIC "-//W3C//DTD SVG 20010904//EN"
 "http://www.w3.org/TR/2001/REC-SVG-20010904/DTD/svg10.dtd">
<svg version="1.0" xmlns="http://www.w3.org/2000/svg"
 width="500.000000pt" height="500.000000pt" viewBox="0 0 500.000000 500.000000"
 preserveAspectRatio="xMidYMid meet">

<g transform="translate(0.000000,500.000000) scale(0.100000,-0.100000)"
fill="#000000" stroke="none">
<path d="M327 4873 c72 -71 339 -333 593 -583 254 -250 466 -456 471 -458 5
-2 9 -10 9 -18 0 -8 6 -14 14 -14 8 0 18 -9 21 -20 3 -11 13 -20 21 -20 8 0
14 -7 14 -15 0 -8 4 -15 9 -15 11 0 8 3 583 -563 257 -253 438 -438 438 -449
0 -10 -9 -27 -21 -39 l-20 -20 25 -20 c14 -11 26 -25 26 -30 0 -11 25 -39 34
-39 3 0 6 23 6 50 0 28 4 50 8 50 5 0 97 -87 205 -192 205 -201 219 -220 178
-254 -18 -16 -13 -22 120 -152 76 -74 136 -139 133 -144 -3 -4 0 -8 7 -8 7 0
51 -38 97 -85 46 -47 87 -85 93 -85 5 0 9 -6 9 -12 0 -7 16 -24 35 -38 19 -14
35 -31 35 -37 0 -7 6 -13 14 -13 8 0 18 -9 21 -20 3 -11 12 -20 20 -20 7 0 15
-9 18 -21 3 -11 14 -23 25 -26 11 -3 22 -13 25 -24 3 -10 12 -19 20 -19 8 0
17 -9 20 -20 3 -11 12 -20 21 -20 9 0 16 -7 16 -15 0 -8 7 -15 15 -15 8 0 15
-7 15 -15 0 -9 11 -20 24 -25 13 -5 27 -18 31 -29 3 -12 13 -21 21 -21 8 0 14
-7 14 -16 0 -9 9 -18 20 -21 11 -3 20 -12 20 -19 0 -8 7 -14 15 -14 8 0 15 -5
15 -11 0 -14 90 -99 104 -99 12 0 116 98 116 108 0 4 -95 100 -212 213 l-212
207 27 24 c15 14 27 28 27 32 0 6 -223 228 -644 640 -813 797 -1474 1452
-1505 1491 -13 17 -35 37 -48 46 -32 22 -283 266 -283 276 0 5 -154 159 -341
343 -188 184 -365 359 -394 388 l-53 52 -123 0 -122 0 130 -127z"/>
<path d="M903 4791 c437 -432 642 -629 649 -625 3 2 4 48 1 102 -5 81 -9 102
-29 128 -13 17 -20 34 -17 38 4 3 1 6 -6 6 -15 0 -41 25 -41 39 0 6 -6 11 -13
11 -16 0 -57 41 -57 57 0 6 -9 13 -20 16 -11 3 -20 12 -20 21 0 9 -7 16 -15
16 -8 0 -20 9 -27 20 -7 11 -18 20 -25 20 -7 0 -13 4 -13 10 0 12 -48 60 -60
60 -5 0 -12 11 -16 24 -3 15 -15 27 -30 30 -13 4 -24 13 -24 21 0 8 -7 15 -15
15 -8 0 -15 6 -15 14 0 8 -9 18 -20 21 -11 3 -20 13 -20 21 0 8 -6 14 -14 14
-8 0 -18 9 -21 20 -3 11 -11 20 -16 20 -14 0 -39 26 -39 39 0 6 -6 11 -13 11
-7 0 -19 9 -27 20 -13 18 -26 20 -131 20 l-117 0 211 -209z"/>
<path d="M1350 4835 l165 -165 3 92 c2 62 -1 94 -9 99 -7 4 -9 14 -6 23 5 11
-9 33 -40 66 l-47 50 -115 0 -116 0 165 -165z"/>
<path d="M2670 4960 c23 -22 45 -40 49 -40 11 0 291 -278 291 -289 0 -6 6 -11
13 -11 16 0 97 -82 97 -98 0 -7 6 -12 13 -12 15 0 147 -134 147 -149 0 -6 7
-11 15 -11 8 0 29 -18 46 -40 18 -22 38 -40 46 -40 7 0 13 -6 13 -14 0 -7 9
-16 20 -19 11 -3 20 -12 20 -21 0 -9 5 -16 11 -16 6 0 17 -7 25 -15 9 -8 12
-15 8 -15 -4 0 5 -13 21 -30 16 -16 34 -30 41 -30 6 0 14 -9 17 -20 3 -11 12
-20 21 -20 9 0 16 -6 16 -13 0 -7 27 -38 60 -70 62 -58 71 -78 45 -103 -8 -9
-15 -21 -15 -28 0 -11 176 -186 1049 -1043 l256 -251 3 109 3 110 -56 53 c-30
29 -55 61 -55 70 0 9 12 27 26 39 l25 22 -178 177 c-98 97 -232 230 -299 295
-67 65 -343 337 -615 604 -272 268 -602 593 -734 722 l-240 236 -123 1 -124 0
42 -40z"/>
<path d="M3144 4985 c8 -8 19 -15 25 -15 6 0 11 -6 11 -12 0 -16 63 -78 79
-78 6 0 11 -6 11 -13 0 -16 42 -57 58 -57 7 0 12 -6 12 -12 0 -7 80 -91 178
-186 97 -95 241 -237 320 -315 l142 -141 -27 -29 -28 -28 305 -301 c168 -165
410 -404 538 -530 l232 -229 0 174 c0 146 -2 176 -15 181 -8 3 -15 12 -15 21
0 8 -7 15 -15 15 -8 0 -15 7 -15 15 0 8 -9 19 -21 25 -32 18 -69 52 -69 66 0
6 -9 14 -20 17 -11 3 -20 12 -20 21 0 9 -7 16 -15 16 -8 0 -15 7 -15 15 0 8
-5 15 -10 15 -6 0 -29 18 -51 40 -22 22 -45 40 -50 40 -5 0 -9 5 -9 11 0 16
-62 79 -77 79 -7 0 -13 6 -13 13 0 12 -323 333 -1019 1014 l-186 183 -118 0
c-105 0 -117 -2 -103 -15z"/>
<path d="M3913 4707 c295 -289 324 -325 282 -341 -8 -3 -15 -12 -15 -20 0 -13
178 -193 605 -610 l210 -205 3 167 3 166 -173 169 c-331 323 -528 521 -528
529 0 4 -6 8 -14 8 -8 0 -18 9 -21 20 -3 11 -12 20 -20 20 -7 0 -15 9 -18 21
-3 11 -15 23 -26 26 -12 3 -21 11 -21 18 0 8 -9 17 -20 20 -11 3 -20 13 -20
21 0 8 -7 14 -16 14 -9 0 -18 9 -21 20 -3 11 -12 20 -19 20 -8 0 -14 7 -14 15
0 9 -12 20 -26 26 -15 5 -24 12 -21 15 6 7 -17 34 -29 34 -10 0 -54 49 -54 61
0 5 -7 9 -15 9 -8 0 -15 7 -15 15 0 9 -12 20 -26 25 -14 6 -22 14 -19 20 4 6
-39 10 -122 10 l-128 0 298 -293z"/>
<path d="M4283 4827 c97 -95 177 -180 177 -189 0 -9 -12 -26 -26 -37 -15 -12
-22 -21 -15 -21 6 0 11 -7 11 -15 0 -8 5 -15 10 -15 6 0 127 -115 270 -256
142 -142 263 -260 268 -263 5 -3 12 -13 15 -21 3 -8 6 64 6 161 l1 176 -142
141 c-79 77 -228 224 -333 326 l-189 186 -115 0 -114 0 176 -173z"/>
<path d="M4684 4919 c59 -57 86 -89 86 -105 0 -20 -4 -22 -35 -17 -26 4 -35 2
-35 -9 0 -7 68 -81 150 -163 l150 -149 0 178 0 177 -85 85 -86 84 -115 0 -116
0 86 -81z"/>
<path d="M0 4830 c0 -105 1 -111 25 -132 14 -12 25 -27 25 -34 0 -6 11 -15 25
-18 14 -4 25 -13 25 -21 0 -8 7 -15 15 -15 8 0 15 -6 15 -14 0 -8 9 -18 20
-21 11 -3 20 -13 20 -21 0 -8 6 -14 14 -14 8 0 18 -9 21 -20 3 -11 11 -20 16
-20 14 0 39 -26 39 -39 0 -6 7 -11 15 -11 8 0 14 -5 13 -12 -2 -7 7 -17 20
-23 12 -5 22 -15 22 -21 0 -7 9 -14 20 -17 11 -3 20 -12 20 -21 0 -9 7 -16 15
-16 8 0 15 -7 15 -16 0 -9 9 -18 20 -21 11 -3 20 -10 20 -15 0 -10 25 -38 34
-38 12 0 56 -44 56 -57 0 -7 6 -13 14 -13 7 0 16 -9 19 -20 3 -11 12 -20 21
-20 9 0 16 -7 16 -15 0 -8 11 -17 25 -21 14 -3 25 -10 25 -15 0 -11 49 -59 60
-59 6 0 10 -5 10 -11 0 -16 62 -79 78 -79 6 0 12 -6 12 -13 0 -16 42 -57 58
-57 7 0 12 -7 12 -16 0 -9 9 -18 20 -21 11 -3 20 -10 20 -17 0 -6 56 -66 125
-134 69 -67 125 -127 125 -132 0 -6 6 -10 14 -10 7 0 16 -9 19 -20 3 -11 13
-23 24 -27 10 -4 30 -18 44 -32 447 -440 956 -941 971 -955 23 -25 23 -27 -4
-61 l-21 -27 181 -180 182 -180 0 46 c0 30 4 46 13 46 19 -1 127 -110 127
-130 0 -9 -7 -23 -15 -30 -19 -15 -19 -35 -1 -52 178 -174 947 -931 967 -953
16 -16 29 -33 29 -37 0 -23 42 -1 88 45 l53 53 -212 207 c-143 141 -209 212
-205 222 3 8 10 15 15 15 5 0 13 9 16 21 6 17 -22 48 -157 181 -89 88 -369
363 -622 612 -252 248 -513 504 -580 570 -255 250 -734 729 -801 800 -38 41
-75 75 -82 75 -6 1 -15 10 -18 21 -3 11 -13 20 -21 20 -8 0 -14 7 -14 15 0 8
-10 17 -23 20 -12 3 -28 19 -36 36 -7 16 -23 32 -37 35 -13 3 -24 11 -24 17 0
15 -132 147 -147 147 -7 0 -13 6 -13 13 0 15 -134 147 -150 147 -5 0 -10 5
-10 11 0 5 -60 69 -132 140 -73 72 -233 229 -355 350 -122 120 -224 219 -227
219 -3 0 -6 -50 -6 -110z"/>
<path d="M2427 4835 c-26 -24 -47 -48 -47 -52 0 -4 78 -83 173 -176 94 -93
378 -372 631 -621 252 -248 527 -519 612 -601 85 -83 154 -156 154 -161 0 -6
-11 -21 -25 -34 l-24 -23 118 -116 c266 -261 923 -906 927 -910 2 -3 15 6 29
19 22 20 25 32 25 87 l0 64 -175 172 c-96 94 -175 179 -175 188 0 10 6 22 14
26 27 16 20 39 -24 82 -25 24 -265 260 -535 526 -269 265 -546 538 -615 605
-712 699 -910 896 -910 906 0 6 -11 15 -25 18 -14 4 -25 13 -25 20 0 14 -21
26 -44 26 -7 0 -33 -20 -59 -45z"/>
<path d="M2182 4597 c-23 -23 -42 -49 -42 -56 0 -7 44 -56 98 -108 53 -52 318
-313 587 -578 270 -265 577 -568 683 -671 183 -179 212 -217 178 -230 -34 -13
-23 -36 53 -111 259 -259 945 -929 956 -935 8 -5 31 10 64 42 28 27 51 54 51
58 0 4 -92 98 -205 207 -113 110 -205 205 -205 211 0 6 11 21 24 34 l25 23
-122 119 c-67 66 -328 323 -580 572 -253 248 -544 534 -648 636 -104 102 -189
190 -189 196 0 7 -9 14 -20 17 -11 3 -20 12 -20 21 0 9 -6 16 -13 16 -7 0 -29
18 -50 40 -20 22 -41 40 -47 40 -5 0 -10 7 -10 15 0 8 -6 15 -13 15 -8 0 -19
11 -25 24 -6 13 -20 27 -31 31 -12 3 -21 13 -21 21 0 8 -6 14 -14 14 -7 0 -16
9 -19 20 -3 11 -12 20 -21 20 -9 0 -16 6 -16 14 0 7 -9 16 -20 19 -11 3 -20
12 -20 21 0 9 -7 16 -15 16 -8 0 -15 7 -15 15 0 8 -11 20 -24 27 -14 7 -24 18
-23 23 1 6 -8 14 -20 20 -13 5 -23 15 -23 21 0 13 -43 54 -57 54 -6 0 -13 9
-16 20 -3 11 -12 20 -21 20 -9 0 -16 5 -16 10 0 18 -52 60 -74 60 -12 0 -40
-19 -64 -43z"/>
<path d="M0 4353 l0 -111 203 -200 c111 -110 258 -255 327 -322 286 -280 380
-374 380 -380 0 -4 24 -29 54 -56 30 -27 193 -185 363 -350 169 -166 379 -371
466 -456 86 -84 157 -158 157 -164 0 -5 13 -21 30 -34 27 -23 41 -70 21 -70
-5 0 -13 -10 -17 -22 -5 -18 25 -52 201 -225 114 -111 213 -203 220 -203 7 0
15 7 19 15 10 27 52 17 94 -24 36 -35 40 -44 44 -101 l4 -63 210 -204 c115
-113 320 -315 456 -449 l247 -244 55 54 c42 41 53 59 49 75 -3 12 -10 21 -16
21 -14 0 -147 132 -147 146 0 7 -11 15 -25 18 -14 4 -25 12 -25 19 0 6 -16 23
-35 37 -19 14 -35 31 -35 38 0 6 -6 12 -14 12 -8 0 -18 9 -21 20 -3 11 -11 20
-16 20 -14 0 -39 26 -39 39 0 6 -7 11 -15 11 -20 0 -20 46 0 54 8 3 15 12 15
21 0 8 4 15 9 15 8 0 -214 222 -539 540 -637 623 -1520 1497 -1599 1583 -24
26 -48 47 -52 47 -4 0 -69 61 -145 136 -77 75 -267 262 -424 417 -157 154
-324 318 -372 366 l-88 86 0 -112z"/>
<path d="M1938 4353 c-45 -47 -45 -48 -29 -73 14 -22 122 -130 557 -556 66
-66 313 -308 548 -539 235 -231 431 -421 437 -423 17 -7 9 -33 -18 -57 -19
-17 -24 -27 -17 -32 7 -5 236 -228 509 -498 274 -269 504 -496 511 -502 7 -7
16 -13 21 -13 13 0 103 94 103 106 0 6 -92 101 -205 211 -113 110 -205 204
-205 208 0 4 12 18 27 31 l28 24 -187 182 c-595 582 -918 904 -918 916 0 6 -7
12 -15 12 -8 0 -15 5 -15 11 0 6 -20 30 -44 52 -67 63 -967 949 -985 970 -25
28 -54 20 -103 -30z"/>
<path d="M1697 4118 l-56 -53 187 -184 c103 -101 393 -386 645 -635 253 -248
522 -512 598 -586 140 -137 157 -163 124 -190 -16 -14 -21 -50 -6 -50 5 0 63
-52 128 -116 304 -298 443 -438 443 -446 0 -4 6 -8 13 -8 8 0 19 -11 25 -25 6
-14 15 -25 19 -25 13 0 59 -44 66 -62 3 -10 13 -18 22 -18 8 0 15 -6 15 -14 0
-7 9 -16 20 -19 11 -3 20 -12 20 -21 0 -9 7 -16 15 -16 8 0 15 -6 15 -13 0 -7
10 -17 21 -22 12 -6 21 -14 20 -18 -2 -11 25 -37 38 -37 6 0 11 -5 11 -10 0
-15 115 -130 130 -130 22 0 100 84 100 108 0 17 -54 77 -202 222 l-203 199 23
23 c12 14 22 29 22 35 0 5 -24 34 -52 63 -51 51 -835 822 -1103 1085 -73 72
-334 328 -579 570 -246 242 -451 441 -455 443 -5 1 -33 -21 -64 -50z"/>
<path d="M0 3865 l0 -106 381 -379 c210 -209 383 -380 385 -380 2 0 35 -30 72
-67 38 -38 261 -257 495 -487 235 -231 430 -429 433 -440 5 -14 0 -24 -15 -34
-23 -16 -29 -52 -8 -52 17 0 69 -54 60 -63 -3 -4 0 -7 7 -7 15 0 80 -64 80
-80 0 -5 6 -10 13 -10 16 0 70 -54 62 -62 -3 -3 6 -8 20 -12 14 -4 25 -11 25
-16 0 -13 133 -150 146 -150 6 0 17 7 24 15 30 36 62 19 169 -90 57 -58 106
-105 108 -105 9 0 33 -29 33 -39 0 -6 7 -11 15 -11 19 0 31 -67 16 -92 -9 -14
-8 -23 4 -42 15 -22 249 -257 569 -571 l139 -136 54 53 c29 29 53 60 53 68 0
17 -43 60 -59 60 -5 0 -11 9 -14 20 -3 11 -12 20 -21 20 -9 0 -16 5 -16 11 0
6 -65 75 -145 152 -140 135 -164 170 -130 183 44 17 34 27 -627 675 -786 772
-1409 1388 -1501 1488 -26 28 -51 51 -55 51 -8 0 -269 254 -588 571 -93 93
-173 169 -177 169 -4 0 -7 -47 -7 -105z"/>
<path d="M0 3378 c0 -64 4 -118 9 -120 14 -5 421 -408 421 -417 0 -10 74 -81
84 -81 5 0 23 -15 41 -32 92 -94 959 -944 968 -950 11 -7 2 -33 -24 -69 -10
-12 -1 -25 45 -70 31 -29 56 -59 56 -65 0 -7 11 -15 25 -18 14 -4 25 -13 25
-21 0 -8 7 -15 15 -15 8 0 15 -7 15 -16 0 -9 9 -18 20 -21 11 -3 20 -12 20
-19 0 -8 6 -14 14 -14 8 0 18 -9 21 -20 3 -11 11 -20 16 -20 11 0 39 -25 39
-34 0 -12 44 -56 56 -56 6 0 14 -9 17 -20 7 -26 38 -26 60 0 30 35 7 54 343
-275 101 -99 184 -186 184 -193 0 -6 5 -12 10 -12 6 0 10 -28 10 -63 l0 -64
240 -234 c132 -129 247 -235 255 -237 15 -4 115 86 115 103 0 6 -92 102 -205
212 -113 111 -205 205 -205 210 0 5 11 20 25 33 l24 23 -157 155 c-86 85 -286
281 -443 436 -343 337 -1146 1127 -1351 1329 -82 79 -148 148 -148 151 0 9
-103 112 -117 117 -6 2 -115 105 -241 229 -126 124 -241 236 -256 249 l-26 24
0 -115z"/>
<path d="M0 2914 l0 -110 91 -95 c183 -188 204 -209 221 -215 10 -3 18 -12 18
-20 0 -8 7 -14 15 -14 8 0 15 -7 15 -16 0 -9 9 -18 20 -21 11 -3 20 -10 20
-17 0 -14 64 -76 79 -76 6 0 11 -7 11 -15 0 -8 6 -15 14 -15 7 0 16 -9 19 -20
3 -11 12 -20 20 -20 8 0 17 -9 20 -20 3 -11 12 -20 21 -20 9 0 16 -5 16 -11 0
-14 95 -109 109 -109 5 0 13 -9 16 -20 3 -11 13 -20 21 -20 8 0 14 -5 14 -10
0 -14 92 -100 108 -100 6 0 12 -5 12 -11 0 -16 131 -149 147 -149 7 0 13 -6
13 -13 0 -7 51 -63 113 -123 151 -149 142 -136 110 -169 l-28 -27 214 -209
c118 -115 217 -209 221 -209 4 0 15 9 25 20 10 11 23 20 29 20 12 0 179 -161
477 -457 188 -187 175 -182 253 -100 l38 41 -151 148 c-83 81 -151 152 -151
158 0 5 -7 10 -15 10 -8 0 -15 6 -15 12 0 7 -71 82 -157 166 -565 552 -1571
1548 -1658 1639 -16 18 -33 33 -37 33 -4 0 -63 55 -131 123 -68 67 -136 133
-150 146 l-27 24 0 -109z"/>
<path d="M0 2422 l0 -121 32 -23 c18 -12 70 -59 114 -103 368 -362 474 -468
488 -490 9 -14 23 -25 30 -25 8 0 16 -9 19 -20 3 -11 12 -20 21 -20 9 0 16 -7
16 -15 0 -8 7 -15 15 -15 8 0 15 -7 15 -16 0 -9 9 -18 20 -21 11 -3 20 -12 20
-19 0 -8 12 -19 26 -25 15 -5 24 -12 20 -16 -6 -6 52 -63 65 -63 4 0 11 -9 14
-20 3 -11 13 -20 21 -20 8 0 14 -5 14 -11 0 -6 20 -30 45 -53 25 -24 45 -47
45 -53 0 -5 -11 -20 -26 -33 l-25 -24 218 -213 218 -213 22 25 c12 14 27 25
32 25 10 0 77 -64 442 -426 108 -107 202 -194 210 -194 17 0 109 90 109 107 0
10 -187 199 -621 625 -725 710 -1401 1379 -1521 1503 -15 17 -44 43 -63 58
l-35 29 0 -120z"/>
<path d="M0 1942 l0 -109 395 -388 c276 -271 395 -394 395 -409 0 -12 -9 -29
-20 -39 -27 -23 -25 -34 9 -52 16 -8 32 -24 36 -35 3 -11 13 -20 21 -20 8 0
14 -4 14 -9 0 -12 47 -61 60 -61 5 0 10 -7 10 -15 0 -8 11 -17 25 -21 14 -3
25 -11 25 -18 0 -6 47 -58 104 -115 l104 -103 22 22 c15 15 29 20 43 16 12 -3
25 -6 30 -6 4 0 7 -6 7 -14 0 -8 11 -17 25 -20 14 -4 25 -11 25 -16 0 -9 47
-60 56 -60 8 0 54 -52 54 -61 0 -5 5 -9 11 -9 13 0 39 -25 39 -39 0 -5 9 -13
20 -16 11 -3 20 -13 20 -21 0 -8 6 -14 14 -14 7 0 16 -9 19 -20 3 -11 12 -20
21 -20 9 0 16 -7 16 -15 0 -8 5 -15 10 -15 6 0 24 -13 42 -30 17 -16 28 -30
24 -30 -4 0 33 -41 82 -90 82 -83 92 -90 129 -90 32 0 46 7 76 38 20 21 37 42
37 47 0 5 -64 71 -142 148 -79 76 -349 342 -602 591 -252 248 -513 504 -580
570 -66 65 -240 236 -386 380 -146 144 -271 265 -277 270 -10 5 -13 -17 -13
-102z"/>
<path d="M0 1462 l0 -113 52 -50 c29 -28 153 -150 276 -271 208 -206 250 -258
207 -258 -9 0 -15 -9 -15 -23 0 -17 57 -79 210 -229 201 -198 210 -205 226
-187 34 38 54 25 238 -156 l179 -175 109 0 c59 0 108 3 108 6 0 3 -44 49 -97
101 -54 52 -320 314 -592 582 -272 267 -546 537 -610 599 -64 63 -155 153
-203 200 l-88 87 0 -113z"/>
<path d="M0 984 l0 -120 150 -146 c90 -88 150 -154 150 -166 0 -10 -9 -27 -21
-38 -20 -18 -20 -19 193 -226 117 -114 218 -208 224 -208 7 0 14 7 18 15 12
33 57 17 110 -40 l52 -56 114 3 114 3 -117 115 c-64 63 -117 118 -117 121 0 6
-289 295 -575 574 -66 64 -159 156 -207 203 l-88 87 0 -121z"/>
<path d="M0 501 l0 -109 35 -31 c41 -36 44 -54 10 -69 -14 -6 -25 -19 -25 -28
0 -9 57 -72 126 -140 l126 -124 174 0 c96 0 174 3 174 6 0 3 -44 49 -97 101
-54 52 -191 187 -304 299 -114 112 -209 204 -213 204 -3 0 -6 -49 -6 -109z"/>
<path d="M2460 431 c0 -22 -4 -43 -10 -46 -5 -3 -10 -30 -10 -59 l0 -52 139
-137 c160 -158 174 -164 236 -100 19 20 35 41 35 48 0 11 -373 385 -384 385
-3 0 -6 -18 -6 -39z"/>
<path d="M2410 15 c0 -8 9 -15 20 -15 11 0 20 7 20 15 0 8 -9 15 -20 15 -11 0
-20 -7 -20 -15z"/>
</g>
</svg>
