<?xml version="1.0" standalone="no"?>
<!DOCTYPE svg PUBLIC "-//W3C//DTD SVG 20010904//EN"
 "http://www.w3.org/TR/2001/REC-SVG-20010904/DTD/svg10.dtd">
<svg version="1.0" xmlns="http://www.w3.org/2000/svg"
 width="1057.000000pt" height="473.000000pt" viewBox="0 0 1057.000000 473.000000"
 preserveAspectRatio="xMidYMid meet">

<g transform="translate(0.000000,473.000000) scale(0.100000,-0.100000)"
fill="#000000" stroke="none">
<path d="M2 4147 l3 -582 1730 -1782 1730 -1782 622 -1 623 0 2 557 3 557 540
-557 540 -556 627 -1 628 0 2 583 3 583 565 -583 565 -582 1193 -1 1192 0 0
1188 0 1187 -1143 1177 -1142 1177 -1212 1 -1213 0 0 -1175 0 -1175 -580 0
-580 0 0 600 0 600 -557 575 -558 574 -607 1 -608 0 -2 -578 -3 -577 -560 577
-560 577 -623 1 -623 0 3 -583z m4698 -2362 c0 -327 -2 -595 -4 -595 -3 0
-689 704 -1075 1103 l-85 87 582 0 582 0 0 -595z"/>
</g>
</svg>
