<?xml version="1.0" standalone="no"?>
<!DOCTYPE svg PUBLIC "-//W3C//DTD SVG 20010904//EN"
 "http://www.w3.org/TR/2001/REC-SVG-20010904/DTD/svg10.dtd">
<svg version="1.0" xmlns="http://www.w3.org/2000/svg"
 width="500.000000pt" height="500.000000pt" viewBox="0 0 500.000000 500.000000"
 preserveAspectRatio="xMidYMid meet">

<g transform="translate(0.000000,500.000000) scale(0.100000,-0.100000)"
fill="#000000" stroke="none">
<path d="M850 4506 c0 -2 96 -80 213 -173 116 -93 657 -524 1202 -958 1647
-1312 1959 -1561 1973 -1569 9 -5 12 7 12 52 l0 58 -282 226 c-156 124 -796
634 -1423 1133 -627 499 -1232 981 -1345 1071 l-205 164 -72 0 c-40 0 -73 -2
-73 -4z"/>
<path d="M1160 4496 c8 -7 238 -190 510 -407 790 -628 2199 -1750 2387 -1901
95 -76 177 -138 183 -138 6 0 10 23 10 54 l0 54 -701 558 c-720 574 -1304
1039 -1907 1520 l-343 274 -77 0 c-65 0 -74 -2 -62 -14z"/>
<path d="M1461 4503 c0 -5 30 -31 67 -60 37 -28 308 -243 602 -478 294 -234
693 -552 885 -705 193 -153 545 -434 784 -624 239 -190 438 -346 442 -346 5 0
9 25 9 55 l0 55 -122 97 c-68 53 -454 361 -858 683 -404 322 -945 753 -1202
958 l-467 372 -71 0 c-38 0 -70 -3 -69 -7z"/>
<path d="M1760 4506 c0 -3 406 -328 903 -724 1435 -1144 1571 -1252 1579
-1252 5 0 8 25 8 55 l0 56 -511 407 c-281 224 -809 644 -1173 934 l-661 528
-72 0 c-40 0 -73 -2 -73 -4z"/>
<path d="M2085 4484 c17 -13 332 -265 700 -558 369 -294 846 -674 1060 -845
215 -171 394 -311 398 -311 4 0 7 26 5 58 l-3 57 -225 180 c-124 98 -582 464
-1019 812 l-794 633 -76 0 -76 -1 30 -25z"/>
<path d="M2366 4501 c8 -8 1188 -947 1656 -1319 119 -95 219 -172 222 -172 9
0 7 103 -2 115 -4 6 -83 72 -177 146 -93 74 -482 384 -862 687 l-692 552 -78
0 c-43 0 -73 -4 -67 -9z"/>
<path d="M2674 4501 c4 -5 203 -166 444 -358 240 -191 591 -470 779 -620 188
-150 344 -273 347 -273 3 0 6 26 6 58 l0 57 -716 570 -715 570 -76 3 c-47 2
-72 -1 -69 -7z"/>
<path d="M2980 4496 c27 -25 1260 -1006 1265 -1006 3 0 5 26 5 58 l0 59 -202
161 c-112 88 -367 291 -568 451 l-365 291 -75 0 c-64 0 -72 -2 -60 -14z"/>
<path d="M3276 4501 c40 -38 957 -761 964 -761 6 0 10 24 10 54 l0 55 -142
112 c-79 63 -266 211 -416 331 l-273 218 -77 0 c-45 0 -72 -4 -66 -9z"/>
<path d="M750 4395 l0 -55 123 -97 c67 -53 478 -380 912 -727 435 -346 927
-738 1095 -872 168 -134 542 -432 832 -664 290 -231 530 -420 533 -420 3 0 5
26 5 58 l0 58 -372 296 c-948 755 -1667 1328 -2756 2196 -195 155 -358 282
-363 282 -5 0 -9 -25 -9 -55z"/>
<path d="M760 4152 l0 -61 538 -428 c295 -235 780 -621 1077 -858 297 -237
711 -567 920 -733 209 -167 507 -404 662 -527 155 -124 284 -225 287 -225 3 0
6 26 6 58 l0 57 -253 201 c-138 111 -740 590 -1337 1065 -597 476 -1260 1004
-1473 1174 -214 171 -397 316 -408 324 -18 13 -19 11 -19 -47z"/>
<path d="M751 3913 l0 -58 487 -387 c565 -449 1335 -1062 2261 -1801 703 -560
737 -587 745 -587 3 0 6 26 5 58 l0 57 -247 196 c-136 108 -503 401 -817 650
-313 250 -844 673 -1180 941 -335 267 -752 599 -925 737 -173 138 -318 251
-322 251 -5 0 -8 -26 -7 -57z"/>
<path d="M750 3673 l0 -58 303 -240 c166 -132 579 -460 917 -730 338 -270 869
-693 1180 -940 310 -248 681 -543 825 -657 143 -115 263 -208 268 -208 4 0 7
25 7 55 l0 55 -647 517 c-827 659 -736 586 -1718 1369 -1088 867 -1122 894
-1129 894 -3 0 -6 -26 -6 -57z"/>
<path d="M750 3433 l0 -58 328 -261 c547 -437 2435 -1940 2807 -2236 192 -153
353 -278 357 -278 4 0 8 25 8 55 l0 55 -347 277 c-649 516 -1027 817 -1479
1178 -1267 1011 -1663 1325 -1668 1325 -3 0 -6 -26 -6 -57z"/>
<path d="M750 3192 l0 -58 476 -380 c262 -208 736 -585 1053 -838 317 -252
852 -679 1189 -948 l613 -489 74 3 74 3 -891 710 c-490 391 -1265 1008 -1722
1373 -457 365 -839 667 -848 673 -16 9 -18 4 -18 -49z"/>
<path d="M760 2943 l0 -59 648 -515 c356 -284 1035 -825 1509 -1202 l862 -687
70 0 c39 0 71 3 71 8 0 4 -13 16 -28 27 -28 19 -306 240 -1647 1310 -1260
1005 -1468 1170 -1477 1173 -4 2 -8 -23 -8 -55z"/>
<path d="M750 2706 l0 -54 801 -639 c441 -351 1054 -839 1363 -1085 l561 -448
73 0 c39 0 72 2 72 4 0 2 -349 282 -776 622 -428 341 -1069 852 -1426 1137
-357 284 -653 517 -658 517 -6 0 -10 -24 -10 -54z"/>
<path d="M760 2461 l0 -59 483 -384 c265 -211 808 -644 1206 -961 l724 -577
76 0 c73 1 75 1 55 18 -11 9 -346 277 -745 594 -398 317 -961 765 -1250 996
-289 230 -531 422 -537 426 -9 5 -12 -9 -12 -53z"/>
<path d="M750 2226 l0 -56 578 -461 c317 -253 794 -633 1060 -845 l483 -385
74 3 73 3 -715 570 c-394 314 -898 716 -1122 894 -223 178 -412 326 -418 328
-10 4 -13 -10 -13 -51z"/>
<path d="M751 1983 l0 -58 566 -450 c311 -247 719 -572 907 -722 l341 -272 75
-1 75 0 -25 24 c-14 13 -290 234 -615 492 -324 258 -751 598 -950 756 -198
158 -363 288 -367 288 -5 0 -8 -26 -7 -57z"/>
<path d="M761 1733 l0 -58 416 -330 c229 -181 567 -450 751 -597 l336 -268 75
0 76 1 -25 21 c-14 11 -277 221 -585 467 -308 245 -666 530 -795 633 -129 104
-238 188 -242 188 -5 0 -8 -26 -7 -57z"/>
<path d="M752 1501 l3 -60 603 -481 603 -481 74 3 74 3 -277 221 c-152 121
-455 363 -674 537 -218 175 -399 317 -403 317 -3 0 -5 -27 -3 -59z"/>
<path d="M760 1253 l0 -58 450 -358 449 -358 73 3 73 3 -513 410 c-283 226
-518 412 -523 413 -5 2 -9 -23 -9 -55z"/>
</g>
</svg>
