<?xml version="1.0" standalone="no"?>
<!DOCTYPE svg PUBLIC "-//W3C//DTD SVG 20010904//EN"
 "http://www.w3.org/TR/2001/REC-SVG-20010904/DTD/svg10.dtd">
<svg version="1.0" xmlns="http://www.w3.org/2000/svg"
 width="500.000000pt" height="58.000000pt" viewBox="0 0 500.000000 58.000000"
 preserveAspectRatio="xMidYMid meet">

<g transform="translate(0.000000,58.000000) scale(0.100000,-0.100000)"
fill="#000000" stroke="none">
<path d="M8 531 c-2 -39 0 -47 9 -39 7 6 13 15 13 21 0 6 12 24 27 39 l27 28
-36 0 c-36 0 -36 0 -40 -49z"/>
<path d="M220 571 c0 -6 -11 -22 -25 -37 -14 -15 -25 -31 -25 -37 0 -5 -12
-24 -27 -42 -35 -42 -64 -83 -63 -90 0 -3 -11 -18 -25 -33 -14 -15 -25 -32
-25 -37 0 -6 -5 -16 -11 -22 -9 -9 -20 -203 -12 -203 2 0 14 17 28 37 14 21
37 56 53 77 15 22 43 63 62 92 80 120 135 200 154 222 11 12 15 22 10 22 -5 0
-4 4 1 8 6 4 19 17 29 30 l19 22 -71 0 c-40 0 -72 -4 -72 -9z"/>
<path d="M500 567 c0 -8 -11 -24 -25 -37 -14 -13 -25 -29 -25 -35 0 -6 -11
-22 -25 -35 -13 -12 -22 -26 -20 -30 2 -4 -7 -18 -20 -30 -14 -13 -25 -29 -25
-35 0 -6 -11 -22 -25 -35 -14 -13 -25 -29 -25 -35 0 -7 -9 -20 -20 -30 -11
-10 -18 -21 -15 -25 2 -4 -7 -18 -20 -30 -14 -13 -25 -29 -25 -35 0 -6 -11
-22 -25 -35 -14 -13 -25 -29 -25 -35 0 -7 -9 -20 -20 -30 -11 -10 -27 -31 -34
-47 l-14 -28 61 0 c52 0 65 4 89 27 15 15 28 32 28 38 0 7 9 20 20 30 11 10
20 23 20 30 0 7 9 20 20 30 11 10 20 22 20 27 0 10 22 41 73 102 15 19 27 37
27 41 0 4 20 36 45 71 25 34 45 67 45 73 0 6 4 11 9 11 5 0 23 23 40 50 l31
50 -70 0 c-51 0 -70 -4 -70 -13z"/>
<path d="M773 550 c-13 -15 -23 -32 -23 -37 0 -5 -11 -20 -25 -33 -14 -13 -25
-29 -25 -35 0 -7 -10 -20 -21 -31 -12 -10 -25 -28 -31 -39 -17 -37 -35 -66
-57 -89 -11 -12 -21 -27 -21 -32 0 -6 -11 -21 -25 -34 -14 -13 -25 -27 -25
-31 0 -5 -14 -28 -30 -51 -17 -24 -38 -54 -47 -68 -9 -14 -26 -35 -37 -47
l-19 -23 67 0 c61 0 69 3 91 28 13 15 25 32 25 38 0 6 11 21 25 34 14 13 25
29 25 35 0 6 11 22 25 35 14 13 25 29 25 35 0 6 11 22 25 35 13 12 22 26 20
31 -3 4 -1 11 5 14 6 4 22 23 35 43 14 21 35 51 47 68 40 55 98 144 98 151 0
3 8 12 18 19 15 12 7 13 -53 13 -65 0 -72 -2 -92 -29z"/>
<path d="M1057 552 c-15 -15 -27 -33 -27 -38 0 -6 -9 -19 -20 -29 -11 -10 -20
-22 -20 -26 0 -5 -14 -28 -30 -51 -17 -24 -41 -59 -54 -78 -13 -19 -31 -41
-40 -49 -9 -7 -16 -18 -16 -23 0 -6 -20 -39 -45 -74 -25 -34 -45 -67 -45 -73
0 -6 -4 -11 -9 -11 -5 0 -23 -22 -40 -50 l-31 -50 70 0 c52 0 70 3 70 13 0 8
10 22 21 33 12 10 25 28 30 39 13 28 30 55 57 84 12 14 22 31 22 37 0 5 14 23
30 39 17 16 30 34 30 40 0 7 9 20 20 30 11 10 18 21 15 25 -2 4 7 18 20 30 14
13 25 29 25 35 0 6 11 22 25 35 14 13 25 29 25 35 0 7 9 20 20 30 11 10 27 31
34 47 l14 28 -62 0 c-55 0 -65 -3 -89 -28z"/>
<path d="M1342 557 c-12 -13 -22 -27 -22 -31 0 -7 -38 -64 -92 -135 -15 -20
-35 -49 -44 -66 -9 -16 -26 -40 -37 -53 -11 -12 -16 -22 -11 -22 5 0 4 -4 -2
-8 -6 -4 -23 -25 -37 -47 -15 -22 -40 -59 -57 -83 -16 -23 -30 -47 -30 -52 0
-6 -3 -10 -7 -10 -5 0 -16 -12 -26 -25 l-18 -25 70 0 71 0 27 43 c15 23 32 49
38 58 26 42 50 76 69 96 11 13 16 23 12 23 -4 0 5 12 19 27 14 15 25 33 25 39
0 6 11 21 25 34 14 13 25 29 25 35 0 6 11 22 25 35 14 13 25 29 25 35 0 7 9
20 20 30 11 10 20 23 20 30 0 6 11 22 24 34 13 13 26 31 29 42 5 17 -1 19 -57
19 -52 0 -66 -4 -84 -23z"/>
<path d="M1622 548 c-11 -18 -48 -72 -81 -120 -34 -48 -61 -90 -61 -92 0 -3
-11 -17 -25 -32 -14 -15 -25 -32 -25 -39 0 -6 -11 -22 -25 -35 -14 -13 -25
-29 -25 -35 0 -6 -11 -22 -25 -35 -13 -12 -22 -26 -20 -30 2 -4 -7 -18 -20
-30 -14 -13 -25 -28 -25 -34 0 -5 -12 -23 -27 -38 l-27 -28 75 1 74 0 50 76
c28 42 52 80 54 86 2 5 12 18 23 29 10 10 23 29 28 41 13 30 30 54 63 91 15
17 27 35 27 41 0 7 11 22 25 35 14 13 25 29 25 35 0 6 11 22 25 35 14 13 25
29 25 35 0 6 11 22 25 35 13 12 22 27 19 31 -3 5 -34 9 -69 9 -60 0 -64 -1
-83 -32z"/>
<path d="M1906 548 c-11 -18 -27 -42 -36 -53 -9 -11 -26 -35 -36 -54 -10 -19
-29 -45 -41 -59 -13 -14 -23 -30 -23 -37 0 -7 -7 -18 -15 -25 -18 -15 -75 -98
-75 -109 0 -4 -11 -18 -25 -31 -14 -13 -25 -29 -25 -35 0 -6 -11 -22 -25 -35
-14 -13 -25 -29 -25 -35 0 -6 -11 -22 -25 -35 -13 -12 -22 -27 -19 -31 3 -5
34 -9 69 -9 60 0 64 1 84 33 38 59 74 112 80 117 12 10 61 90 61 100 0 5 4 10
10 10 5 0 19 17 30 37 11 21 36 58 55 83 18 25 34 48 34 52 1 4 12 19 26 34
14 15 25 32 25 39 0 6 11 22 25 35 14 13 25 27 25 32 0 4 -31 8 -68 8 -66 0
-68 -1 -86 -32z"/>
<path d="M2183 538 c-15 -24 -32 -50 -38 -59 -26 -42 -50 -76 -69 -96 -11 -13
-16 -23 -12 -23 4 0 -7 -15 -23 -32 -17 -18 -31 -38 -31 -44 0 -6 -9 -19 -20
-29 -11 -10 -20 -23 -20 -30 0 -6 -11 -22 -25 -35 -14 -13 -25 -29 -25 -35 0
-7 -9 -20 -20 -30 -11 -10 -20 -23 -20 -30 0 -6 -11 -22 -24 -34 -13 -13 -26
-31 -29 -42 -5 -17 1 -19 57 -19 73 0 93 15 134 105 6 11 19 29 31 39 11 11
21 24 21 31 0 7 9 20 20 30 11 10 26 30 33 44 26 52 42 76 58 88 9 7 22 26 29
43 7 16 15 30 19 30 4 0 15 15 25 33 11 17 28 42 39 55 11 12 16 22 11 22 -5
0 -4 4 1 8 6 4 19 17 29 30 l19 22 -71 0 -72 0 -27 -42z"/>
<path d="M2490 567 c0 -8 -11 -24 -25 -37 -14 -13 -25 -29 -25 -35 0 -6 -11
-22 -25 -35 -13 -12 -22 -26 -20 -30 2 -4 -7 -18 -20 -30 -14 -13 -25 -29 -25
-35 0 -6 -11 -22 -25 -35 -14 -13 -25 -29 -25 -35 0 -6 -11 -22 -25 -35 -14
-13 -25 -27 -25 -31 0 -8 -36 -62 -90 -134 -16 -22 -36 -52 -45 -67 l-16 -28
64 0 c53 0 67 4 85 23 12 13 22 28 22 33 0 6 11 21 25 34 14 13 25 27 25 31 0
5 14 28 30 51 17 24 41 59 54 78 13 19 31 41 40 49 9 7 16 18 16 23 0 5 24 43
53 84 28 42 67 98 84 125 l33 49 -70 0 c-51 0 -70 -4 -70 -13z"/>
<path d="M2763 550 c-13 -15 -23 -32 -23 -37 0 -5 -11 -20 -25 -33 -14 -13
-25 -29 -25 -35 0 -6 -11 -22 -25 -35 -14 -13 -25 -29 -25 -35 0 -6 -11 -22
-25 -35 -14 -13 -23 -26 -20 -28 3 -3 -3 -15 -13 -26 -19 -21 -32 -40 -79
-111 -14 -22 -29 -42 -32 -45 -10 -8 -61 -89 -61 -96 0 -4 -8 -13 -17 -20 -16
-12 -9 -13 50 -14 62 0 70 2 92 28 13 15 25 32 25 38 0 6 11 21 25 34 14 13
25 29 25 35 0 6 11 22 25 35 14 13 25 29 25 35 0 6 11 22 25 35 13 12 22 26
20 30 -3 4 4 15 15 25 11 10 20 23 20 30 0 6 11 22 25 35 14 13 25 29 25 35 0
7 9 20 20 30 11 10 20 22 20 28 0 5 10 22 23 38 12 16 32 42 45 59 l24 30 -69
-1 c-63 0 -70 -2 -90 -29z"/>
<path d="M3047 552 c-15 -15 -27 -33 -27 -38 0 -6 -11 -21 -25 -34 -14 -13
-25 -29 -25 -35 0 -6 -8 -20 -18 -31 -10 -11 -31 -40 -45 -65 -15 -25 -36 -54
-47 -64 -11 -10 -20 -22 -20 -28 0 -5 -20 -38 -45 -73 -25 -34 -45 -67 -45
-73 0 -6 -4 -11 -9 -11 -5 0 -23 -22 -40 -50 l-31 -50 63 0 c60 0 65 2 88 32
37 50 69 98 69 104 0 3 11 17 25 32 14 15 25 32 25 38 0 6 11 21 25 34 14 13
25 29 25 35 0 6 11 22 25 35 13 12 22 26 20 30 -2 4 7 18 20 30 14 13 25 29
25 35 0 6 11 22 25 35 14 13 25 29 25 35 0 7 9 20 20 30 11 10 27 31 34 47
l14 28 -62 0 c-55 0 -65 -3 -89 -28z"/>
<path d="M3332 557 c-12 -13 -22 -26 -22 -30 0 -6 -39 -64 -90 -132 -16 -22
-37 -53 -46 -70 -9 -16 -26 -40 -37 -53 -11 -12 -18 -22 -14 -22 3 0 -5 -12
-18 -26 -14 -15 -25 -31 -25 -36 0 -5 -11 -21 -25 -36 -14 -15 -25 -32 -25
-38 0 -6 -11 -21 -25 -34 -14 -13 -25 -28 -25 -33 0 -6 -7 -19 -17 -29 -15
-17 -13 -18 55 -18 40 0 72 4 72 9 0 6 11 22 25 37 14 15 25 31 25 37 0 5 12
24 28 42 35 43 63 84 60 88 -2 1 9 16 25 32 15 16 27 35 27 41 0 6 10 19 21
30 12 10 25 28 30 39 13 28 30 55 57 84 12 14 22 31 22 37 0 6 9 19 20 29 11
10 27 31 34 47 l14 28 -62 0 c-52 0 -66 -4 -84 -23z"/>
<path d="M3612 548 c-11 -18 -48 -72 -81 -120 -34 -48 -61 -90 -61 -92 0 -3
-11 -17 -25 -32 -14 -15 -25 -32 -25 -39 0 -6 -11 -22 -25 -35 -14 -13 -25
-29 -25 -35 0 -6 -11 -22 -25 -35 -13 -12 -22 -26 -20 -30 2 -4 -7 -18 -20
-30 -14 -13 -25 -28 -25 -34 0 -5 -12 -23 -27 -38 l-27 -28 75 1 74 0 53 79
c28 44 52 84 52 90 0 5 4 10 9 10 7 0 71 94 71 105 0 2 14 19 30 37 17 18 30
38 30 44 0 6 9 19 20 29 11 10 20 24 20 30 0 7 7 18 15 25 18 15 68 87 78 113
6 15 -1 17 -57 17 -61 0 -65 -1 -84 -32z"/>
<path d="M3888 538 c-15 -24 -41 -62 -57 -86 -17 -23 -31 -47 -31 -52 0 -6 -4
-10 -9 -10 -5 0 -16 -15 -24 -33 -9 -18 -27 -43 -41 -56 -14 -14 -26 -30 -26
-36 0 -6 -11 -22 -25 -35 -13 -12 -22 -26 -20 -30 2 -4 -7 -18 -20 -30 -14
-13 -25 -29 -25 -35 0 -6 -11 -22 -25 -35 -14 -13 -25 -29 -25 -35 0 -7 -9
-20 -20 -30 -29 -26 -16 -35 56 -35 58 0 65 2 73 22 5 13 18 32 30 42 11 11
21 23 21 27 0 5 14 28 30 51 54 75 84 120 110 158 14 21 40 59 58 85 17 25 32
48 32 51 0 3 11 17 25 32 14 15 25 32 25 38 0 6 11 21 25 34 14 13 25 27 25
32 0 4 -30 8 -68 8 l-67 0 -27 -42z"/>
<path d="M4171 534 c-17 -25 -31 -48 -31 -53 0 -4 -11 -18 -25 -31 -14 -13
-25 -29 -25 -35 0 -6 -11 -22 -25 -35 -14 -13 -25 -29 -25 -35 0 -7 -9 -20
-20 -30 -11 -10 -20 -23 -20 -30 0 -6 -11 -22 -25 -35 -14 -13 -25 -29 -25
-35 0 -6 -11 -22 -25 -35 -14 -13 -25 -29 -25 -35 0 -6 -11 -22 -25 -35 -14
-13 -23 -26 -20 -28 2 -3 -7 -18 -20 -34 -14 -16 -25 -34 -25 -39 0 -5 29 -9
63 -9 49 0 68 4 80 18 10 10 15 21 12 24 -3 2 6 15 20 28 14 13 25 29 25 35 0
6 11 22 25 35 14 13 25 29 25 35 0 7 9 20 20 30 11 10 26 30 33 44 26 51 42
76 55 84 6 4 19 22 28 40 9 18 20 34 23 37 9 7 71 99 71 106 0 3 9 14 20 26
11 12 20 25 20 30 0 4 -29 8 -64 8 l-65 0 -30 -46z"/>
</g>
</svg>
